<svg width="154" height="68" viewBox="0 0 154 68" fill="none" xmlns="http://www.w3.org/2000/svg">
<g clip-path="url(#clip0_1415_562)">
<path d="M28.4683 12.8642C28.5452 15.0515 30.1695 16.4527 32.9183 16.4527H33.1586C35.2875 16.4527 36.5225 15.3298 36.5225 13.9383C36.5225 12.6641 35.8257 11.9171 34.0813 11.5509L30.9192 10.8967C27.7859 10.2278 26.2001 8.40674 26.2001 5.52621C26.2001 2.64569 28.9056 -0.0541985 33.0625 -0.000493761C37.3202 -0.0395518 39.9777 2.48945 39.9921 6.05838H36.8156C36.6907 4.05177 35.1769 2.87027 33.1153 2.87027H32.8558C30.7654 2.87027 29.3958 4.01272 29.3958 5.42857C29.3958 6.7419 30.1599 7.44982 31.7698 7.77693L34.6243 8.35304C37.9161 9.02191 39.723 10.7649 39.723 13.7235C39.7615 16.9849 36.9983 19.3479 32.7117 19.3088C27.9926 19.3088 25.436 16.8677 25.3062 12.8447L28.4683 12.8642ZM42.4142 0.263148H56.1966V3.14856H45.5907V7.97222H54.6107V10.8576H45.5907V16.1939H56.4561V19.0647H42.4142V0.263148ZM66.0192 -0.000493761C70.4067 -0.0395518 73.4246 2.68963 73.6313 6.34643H70.4548C70.3242 5.35157 69.8218 4.44595 69.0516 3.81743C68.2251 3.17798 67.2064 2.84854 66.1682 2.88492H65.8991C62.5688 2.83609 60.363 5.67756 60.4015 9.67613C60.363 13.6747 62.5688 16.5113 65.8991 16.4673H66.1682C67.2023 16.507 68.219 16.1885 69.0516 15.5641C69.8253 14.9337 70.3255 14.0207 70.4452 13.0205H73.6217C73.4006 16.731 70.4067 19.3674 66.0096 19.3674C60.5601 19.4162 57.1673 15.3542 57.2202 9.70054C57.1865 4.03713 60.5505 -0.063963 66.0192 -0.000493761ZM75.9908 0.263148H84.2997C87.5291 0.22409 90.0664 2.47969 90.0328 5.37487C90.0328 7.74764 88.9083 9.42713 86.9332 10.1204C88.9467 10.1204 89.7733 10.9748 89.7733 12.7715V19.0647H86.5968V13.5819C86.5968 12.1661 86.2267 11.7755 84.8331 11.7755H79.1673V19.0647H75.9908V0.263148ZM83.526 8.92914C85.6549 8.92914 86.8899 7.77693 86.8899 5.94121C86.8899 4.10548 85.727 3.14856 83.526 3.14856H79.1673V8.92914H83.526ZM92.9834 0.263148H106.766V3.14856H96.1551V7.97222H105.175V10.8576H96.1551V16.1939H107.021V19.0647H92.9834V0.263148ZM114.291 3.14856H107.799V0.263148H123.955V3.14856H117.453V19.0647H114.291V3.14856ZM46.7056 24.6012V43.4027H43.5819V27.8283L38.6129 43.4027H34.9319L29.8379 27.8625V43.4027H26.7143V24.6012H31.7602L36.7916 40.0047L41.6837 24.6012H46.7056ZM50.1127 24.6012H63.9144V27.4817H53.2892V32.3102H62.3093V35.1957H53.2892V40.5222H64.1547V43.4027H50.1127V24.6012ZM66.3172 24.6012H72.7711C78.1533 24.5621 81.8536 28.048 81.8152 33.9995C81.8681 39.951 78.2158 43.4418 72.848 43.4027H66.3172V24.6012ZM72.526 40.5222C74.4771 40.5222 75.9716 39.9949 77.0433 38.9355C78.1149 37.876 78.6579 36.2307 78.6579 33.9897C78.6579 31.7488 78.1149 30.0839 77.0433 29.0587C75.9716 28.0334 74.4771 27.4719 72.526 27.4719H69.5081V40.5222H72.526ZM84.2661 24.6012H87.4618V43.4027H84.2853L84.2661 24.6012ZM102.013 38.7988H93.7955L92.0511 43.4027H88.7497L96.0782 24.6012H99.9227L107.131 43.4027H103.801L102.013 38.7988ZM100.917 35.9133L97.8995 27.9699L94.8912 35.9133H100.917ZM41.9432 48.9343V67.7407H37.7191L29.886 53.1868V67.7407H26.7143V48.9343H30.9432L38.7811 63.4688V48.9343H41.9432ZM45.3552 48.9343H59.1376V51.8197H48.5365V56.6336H57.5566V59.5142H48.5365V64.8505H59.4019V67.7261H45.3552V48.9343ZM66.6632 51.8197H60.1708V48.9343H76.332V51.8197H69.8253V67.7407H66.6632V51.8197ZM100.836 48.9343L96.2945 67.7407H92.128L88.9371 53.1575L85.6981 67.7407H81.5317L77.0144 48.9343H80.2918L83.723 64.2646L87.0004 48.9343H90.9795L94.2281 64.2792L97.5439 48.9343H100.836ZM110.048 48.6756C115.2 48.6072 118.967 52.4105 118.914 58.3375C118.967 64.2646 115.2 68.0679 110.048 67.9995C104.887 68.0679 101.105 64.2646 101.172 58.3375C101.105 52.4105 104.887 48.6072 110.048 48.6756ZM110.178 65.1287C113.542 65.1287 115.752 62.5607 115.752 58.3375C115.752 54.1144 113.547 51.5463 110.178 51.5463H109.918C106.554 51.5463 104.344 54.1144 104.344 58.3375C104.344 62.5607 106.55 65.1287 109.918 65.1287H110.178ZM121.303 48.9343H129.616C132.841 48.8953 135.383 51.1509 135.345 54.0509C135.345 56.4237 134.22 58.1032 132.25 58.7965C134.259 58.7965 135.085 59.6509 135.085 61.4475V67.7407H131.913V62.258C131.913 60.8421 131.539 60.4467 130.145 60.4467H124.465V67.7407H121.288L121.303 48.9343ZM128.843 57.6101C130.972 57.6101 132.183 56.453 132.183 54.6173C132.183 52.7815 131.02 51.8246 128.843 51.8246H124.465V57.6101H128.843ZM144.23 59.0747L141.467 62.0041V67.7505H138.295V48.9343H141.467V57.7224L149.858 48.9343H153.861L146.513 56.6873L154 67.7407H150.064L144.23 59.0747ZM3.1813 17.5219L6.84797 11.0773H0V7.98687H6.84797L3.1813 1.5423L5.86282 -0.000493761L9.52949 6.44408L13.1913 -0.000493761L15.8104 1.5423L12.1485 7.98687H18.9965V11.0773H12.1485L15.8104 17.5219L13.1337 19.0647L9.46702 12.6201L5.80516 19.0647L3.1813 17.5219Z" fill="white" fill-opacity="0.8"/>
</g>
<defs>
<clipPath id="clip0_1415_562">
<rect width="154" height="68" fill="white"/>
</clipPath>
</defs>
</svg>
