<svg width="105" height="22" viewBox="0 0 105 22" fill="none" xmlns="http://www.w3.org/2000/svg">
<path d="M69.8159 0H65.4007V19.1123C69.402 19.2188 73.4033 19.3785 77.4046 19.5914V16.2374C74.852 16.131 72.3685 15.9713 69.8159 15.918V0ZM105 0H100.171L96.9972 5.74965L94.0997 0H89.3395L94.5136 10.2216L88.7876 20.2835C90.3743 20.39 91.8921 20.5497 93.4098 20.6562L96.6522 14.8L99.8947 21.2418C101.55 21.4015 103.275 21.5612 104.931 21.7742L99.2048 10.2748L105 0ZM50.2233 18.9526H54.6385V11.1799H60.6405V7.82592H54.6385V3.4072H62.5722V0H50.2233V18.9526ZM33.7352 3.4072H38.3574V19.1655C39.8061 19.1123 41.3238 19.1123 42.7726 19.059V3.4072H47.3948V0H33.7352V3.4072ZM18.6268 20.1238C22.6971 19.8576 26.7674 19.5914 30.9066 19.4317V16.0777C28.2851 16.1842 25.6636 16.3439 23.042 16.5036V11.3928C24.7667 11.3928 27.0433 11.3396 29.044 11.3396V7.98563C27.4572 7.98563 24.9047 7.98563 23.042 8.03887V3.4072H30.9066V0H18.6268V20.1238ZM9.93428 12.3511L4.20827 0H0V21.7742C1.44875 21.6144 2.96649 21.4547 4.41523 21.295V9.47628L9.52035 20.8159C11.1071 20.6562 12.7628 20.5497 14.3495 20.39V0H9.93428V12.3511ZM81.061 19.8044C82.5097 19.9108 84.0274 19.9641 85.4762 20.0706V0H81.061V19.8044Z" fill="white" fill-opacity="0.8"/>
</svg>
